<?xml version="1.0" encoding="UTF-8" standalone="no"?>
<!DOCTYPE svg PUBLIC "-//W3C//DTD SVG 1.1//EN"
 "http://www.w3.org/Graphics/SVG/1.1/DTD/svg11.dtd">
<!-- Generated by graphviz version 9.0.0 (0)
 -->
<!-- Title: RenderGraph Pages: 1 -->
<svg width="4421pt" height="484pt"
 viewBox="0.00 0.00 4420.75 484.00" xmlns="http://www.w3.org/2000/svg" xmlns:xlink="http://www.w3.org/1999/xlink">
<g id="graph0" class="graph" transform="scale(1 1) rotate(0) translate(4 480)">
<title>RenderGraph</title>
<polygon fill="#0d1117" stroke="none" points="-4,4 -4,-480 4416.75,-480 4416.75,4 -4,4"/>
<g id="clust1" class="cluster">
<title>cluster_core_2d</title>
<path fill="#343a42" stroke="#343a42" d="M44.75,-8C44.75,-8 2272.5,-8 2272.5,-8 2278.5,-8 2284.5,-14 2284.5,-20 2284.5,-20 2284.5,-203 2284.5,-203 2284.5,-209 2278.5,-215 2272.5,-215 2272.5,-215 44.75,-215 44.75,-215 38.75,-215 32.75,-209 32.75,-203 32.75,-203 32.75,-20 32.75,-20 32.75,-14 38.75,-8 44.75,-8"/>
<text text-anchor="middle" x="1158.62" y="-197.7" font-family="Times,serif" font-size="14.00" fill="white">core_2d</text>
</g>
<g id="clust2" class="cluster">
<title>cluster_core_3d</title>
<path fill="#343a42" stroke="#343a42" d="M20,-223C20,-223 4392.75,-223 4392.75,-223 4398.75,-223 4404.75,-229 4404.75,-235 4404.75,-235 4404.75,-414 4404.75,-414 4404.75,-420 4398.75,-426 4392.75,-426 4392.75,-426 20,-426 20,-426 14,-426 8,-420 8,-414 8,-414 8,-235 8,-235 8,-229 14,-223 20,-223"/>
<text text-anchor="middle" x="2206.38" y="-408.7" font-family="Times,serif" font-size="14.00" fill="white">core_3d</text>
</g>
<!-- _core_2d__core_2dglyph_generation -->
<g id="node1" class="node">
<title>_core_2d__core_2dglyph_generation</title>
<text text-anchor="start" x="1191.25" y="-60.2" font-family="Helvetica,sans-Serif" font-size="14.00" fill="white">glyph_generation</text>
<text text-anchor="start" x="1195" y="-50" font-family="Helvetica,sans-Serif" font-size="10.00" fill="red">GlyphGenerationNode</text>
<text text-anchor="start" x="1176.12" y="-28.57" font-family="Helvetica,sans-Serif" font-size="14.00" fill="white"> </text>
<polygon fill="none" stroke="white" points="1183.5,-23.5 1183.5,-44.5 1311.5,-44.5 1311.5,-23.5 1183.5,-23.5"/>
<text text-anchor="start" x="1186.38" y="-28.2" font-family="Helvetica,sans-Serif" font-size="14.00" fill="white">vertex_buffer: Buffer</text>
<path fill="none" stroke="white" d="M1183.5,-20.5C1183.5,-20.5 1302.5,-20.5 1302.5,-20.5 1308.5,-20.5 1314.5,-26.5 1314.5,-32.5 1314.5,-32.5 1314.5,-65.5 1314.5,-65.5 1314.5,-71.5 1308.5,-77.5 1302.5,-77.5 1302.5,-77.5 1183.5,-77.5 1183.5,-77.5 1177.5,-77.5 1171.5,-71.5 1171.5,-65.5 1171.5,-65.5 1171.5,-32.5 1171.5,-32.5 1171.5,-26.5 1177.5,-20.5 1183.5,-20.5"/>
</g>
<!-- _core_2d__core_2dglyph_raster -->
<g id="node2" class="node">
<title>_core_2d__core_2dglyph_raster</title>
<text text-anchor="start" x="1504" y="-60.2" font-family="Helvetica,sans-Serif" font-size="14.00" fill="white">glyph_raster</text>
<text text-anchor="start" x="1502.12" y="-50" font-family="Helvetica,sans-Serif" font-size="10.00" fill="red">GlyphRasterNode</text>
<polygon fill="none" stroke="white" points="1472.62,-23.5 1472.62,-44.5 1600.62,-44.5 1600.62,-23.5 1472.62,-23.5"/>
<text text-anchor="start" x="1475.5" y="-28.2" font-family="Helvetica,sans-Serif" font-size="14.00" fill="white">vertex_buffer: Buffer</text>
<text text-anchor="start" x="1604.25" y="-28.57" font-family="Helvetica,sans-Serif" font-size="14.00" fill="white"> </text>
<path fill="none" stroke="white" d="M1481.62,-20.5C1481.62,-20.5 1600.62,-20.5 1600.62,-20.5 1606.62,-20.5 1612.62,-26.5 1612.62,-32.5 1612.62,-32.5 1612.62,-65.5 1612.62,-65.5 1612.62,-71.5 1606.62,-77.5 1600.62,-77.5 1600.62,-77.5 1481.62,-77.5 1481.62,-77.5 1475.62,-77.5 1469.62,-71.5 1469.62,-65.5 1469.62,-65.5 1469.62,-32.5 1469.62,-32.5 1469.62,-26.5 1475.62,-20.5 1481.62,-20.5"/>
</g>
<!-- _core_2d__core_2dglyph_generation&#45;&gt;_core_2d__core_2dglyph_raster -->
<g id="edge2" class="edge">
<title>_core_2d__core_2dglyph_generation:e&#45;&gt;_core_2d__core_2dglyph_raster:w</title>
<path fill="none" stroke="white" d="M1313,-61C1379.3,-61 1398.69,-61 1459.67,-61"/>
<polygon fill="white" stroke="white" points="1459.61,-64.5 1469.61,-61 1459.61,-57.5 1459.61,-64.5"/>
</g>
<!-- _core_2d__core_2dglyph_generation&#45;&gt;_core_2d__core_2dglyph_raster -->
<g id="edge3" class="edge">
<title>_core_2d__core_2dglyph_generation:e&#45;&gt;_core_2d__core_2dglyph_raster:w</title>
<path fill="none" stroke="#a79be6" d="M1313,-34C1379.3,-34 1398.69,-34 1459.67,-34"/>
<polygon fill="#a79be6" stroke="#a79be6" points="1459.61,-37.5 1469.61,-34 1459.61,-30.5 1459.61,-37.5"/>
</g>
<!-- _core_2d__core_2dend_main_pass_post_processing -->
<g id="node6" class="node">
<title>_core_2d__core_2dend_main_pass_post_processing</title>
<text text-anchor="start" x="1772.5" y="-120.7" font-family="Helvetica,sans-Serif" font-size="14.00" fill="white">end_main_pass_post_processing</text>
<text text-anchor="start" x="1847.5" y="-110.5" font-family="Helvetica,sans-Serif" font-size="10.00" fill="red">EmptyNode</text>
<path fill="none" stroke="white" d="M1778.33,-104C1778.33,-104 1968.42,-104 1968.42,-104 1974.08,-104 1979.75,-109.67 1979.75,-115.33 1979.75,-115.33 1979.75,-126.67 1979.75,-126.67 1979.75,-132.33 1974.08,-138 1968.42,-138 1968.42,-138 1778.33,-138 1778.33,-138 1772.67,-138 1767,-132.33 1767,-126.67 1767,-126.67 1767,-115.33 1767,-115.33 1767,-109.67 1772.67,-104 1778.33,-104"/>
</g>
<!-- _core_2d__core_2dglyph_raster&#45;&gt;_core_2d__core_2dend_main_pass_post_processing -->
<g id="edge10" class="edge">
<title>_core_2d__core_2dglyph_raster:e&#45;&gt;_core_2d__core_2dend_main_pass_post_processing:w</title>
<path fill="none" stroke="white" d="M1611.12,-61C1682.38,-61 1693.14,-114.84 1758.02,-120.52"/>
<polygon fill="white" stroke="white" points="1757.72,-124.01 1767.86,-120.94 1758.02,-117.01 1757.72,-124.01"/>
</g>
<!-- _core_2d__core_2dcontrast_adaptive_sharpening -->
<g id="node3" class="node">
<title>_core_2d__core_2dcontrast_adaptive_sharpening</title>
<text text-anchor="start" x="1450.75" y="-140.7" font-family="Helvetica,sans-Serif" font-size="14.00" fill="white">contrast_adaptive_sharpening</text>
<text text-anchor="start" x="1519" y="-130.5" font-family="Helvetica,sans-Serif" font-size="10.00" fill="red">CASNode</text>
<path fill="none" stroke="white" d="M1456.58,-124C1456.58,-124 1625.67,-124 1625.67,-124 1631.33,-124 1637,-129.67 1637,-135.33 1637,-135.33 1637,-146.67 1637,-146.67 1637,-152.33 1631.33,-158 1625.67,-158 1625.67,-158 1456.58,-158 1456.58,-158 1450.92,-158 1445.25,-152.33 1445.25,-146.67 1445.25,-146.67 1445.25,-135.33 1445.25,-135.33 1445.25,-129.67 1450.92,-124 1456.58,-124"/>
</g>
<!-- _core_2d__core_2dcontrast_adaptive_sharpening&#45;&gt;_core_2d__core_2dend_main_pass_post_processing -->
<g id="edge9" class="edge">
<title>_core_2d__core_2dcontrast_adaptive_sharpening:e&#45;&gt;_core_2d__core_2dend_main_pass_post_processing:w</title>
<path fill="none" stroke="white" d="M1635.12,-141C1691.44,-141 1707.04,-123.57 1757.95,-121.25"/>
<polygon fill="white" stroke="white" points="1757.94,-124.75 1767.86,-121.03 1757.79,-117.76 1757.94,-124.75"/>
</g>
<!-- _core_2d__core_2dmain_pass -->
<g id="node4" class="node">
<title>_core_2d__core_2dmain_pass</title>
<text text-anchor="start" x="352.75" y="-110.7" font-family="Helvetica,sans-Serif" font-size="14.00" fill="white">main_pass</text>
<text text-anchor="start" x="347.12" y="-100.5" font-family="Helvetica,sans-Serif" font-size="10.00" fill="red">MainPass2dNode</text>
<path fill="none" stroke="white" d="M352.96,-94C352.96,-94 418.54,-94 418.54,-94 424.21,-94 429.88,-99.67 429.88,-105.33 429.88,-105.33 429.88,-116.67 429.88,-116.67 429.88,-122.33 424.21,-128 418.54,-128 418.54,-128 352.96,-128 352.96,-128 347.29,-128 341.62,-122.33 341.62,-116.67 341.62,-116.67 341.62,-105.33 341.62,-105.33 341.62,-99.67 347.29,-94 352.96,-94"/>
</g>
<!-- _core_2d__core_2dbloom -->
<g id="node7" class="node">
<title>_core_2d__core_2dbloom</title>
<text text-anchor="start" x="682.75" y="-90.7" font-family="Helvetica,sans-Serif" font-size="14.00" fill="white">bloom</text>
<text text-anchor="start" x="631.75" y="-80.5" font-family="Helvetica,sans-Serif" font-size="10.00" fill="red">ViewNodeRunner&lt;BloomNode&gt;</text>
<path fill="none" stroke="white" d="M637.58,-74C637.58,-74 765.42,-74 765.42,-74 771.08,-74 776.75,-79.67 776.75,-85.33 776.75,-85.33 776.75,-96.67 776.75,-96.67 776.75,-102.33 771.08,-108 765.42,-108 765.42,-108 637.58,-108 637.58,-108 631.92,-108 626.25,-102.33 626.25,-96.67 626.25,-96.67 626.25,-85.33 626.25,-85.33 626.25,-79.67 631.92,-74 637.58,-74"/>
</g>
<!-- _core_2d__core_2dmain_pass&#45;&gt;_core_2d__core_2dbloom -->
<g id="edge11" class="edge">
<title>_core_2d__core_2dmain_pass:e&#45;&gt;_core_2d__core_2dbloom:w</title>
<path fill="none" stroke="white" d="M427.75,-111C513.56,-111 536.87,-92.68 617.31,-91.11"/>
<polygon fill="white" stroke="white" points="617.02,-94.61 626.99,-91.01 616.95,-87.61 617.02,-94.61"/>
</g>
<!-- _core_2d__core_2dtonemapping -->
<g id="node9" class="node">
<title>_core_2d__core_2dtonemapping</title>
<text text-anchor="start" x="953.12" y="-110.7" font-family="Helvetica,sans-Serif" font-size="14.00" fill="white">tonemapping</text>
<text text-anchor="start" x="907.75" y="-100.5" font-family="Helvetica,sans-Serif" font-size="10.00" fill="red">ViewNodeRunner&lt;TonemappingNode&gt;</text>
<path fill="none" stroke="white" d="M913.58,-94C913.58,-94 1071.42,-94 1071.42,-94 1077.08,-94 1082.75,-99.67 1082.75,-105.33 1082.75,-105.33 1082.75,-116.67 1082.75,-116.67 1082.75,-122.33 1077.08,-128 1071.42,-128 1071.42,-128 913.58,-128 913.58,-128 907.92,-128 902.25,-122.33 902.25,-116.67 902.25,-116.67 902.25,-105.33 902.25,-105.33 902.25,-99.67 907.92,-94 913.58,-94"/>
</g>
<!-- _core_2d__core_2dmain_pass&#45;&gt;_core_2d__core_2dtonemapping -->
<g id="edge13" class="edge">
<title>_core_2d__core_2dmain_pass:e&#45;&gt;_core_2d__core_2dtonemapping:w</title>
<path fill="none" stroke="white" d="M427.75,-111C495.9,-111 512.64,-118.78 580.75,-121 688.03,-124.5 715.11,-127.49 822.25,-121 854.99,-119.02 865.44,-112.63 893.35,-111.26"/>
<polygon fill="white" stroke="white" points="893.07,-114.77 902.99,-111.04 892.91,-107.77 893.07,-114.77"/>
</g>
<!-- _core_2d__core_2dmsaa_writeback -->
<g id="node5" class="node">
<title>_core_2d__core_2dmsaa_writeback</title>
<text text-anchor="start" x="54.25" y="-110.7" font-family="Helvetica,sans-Serif" font-size="14.00" fill="white">msaa_writeback</text>
<text text-anchor="start" x="58" y="-100.5" font-family="Helvetica,sans-Serif" font-size="10.00" fill="red">MsaaWritebackNode</text>
<path fill="none" stroke="white" d="M60.08,-94C60.08,-94 146.67,-94 146.67,-94 152.33,-94 158,-99.67 158,-105.33 158,-105.33 158,-116.67 158,-116.67 158,-122.33 152.33,-128 146.67,-128 146.67,-128 60.08,-128 60.08,-128 54.42,-128 48.75,-122.33 48.75,-116.67 48.75,-116.67 48.75,-105.33 48.75,-105.33 48.75,-99.67 54.42,-94 60.08,-94"/>
</g>
<!-- _core_2d__core_2dmsaa_writeback&#45;&gt;_core_2d__core_2dmain_pass -->
<g id="edge6" class="edge">
<title>_core_2d__core_2dmsaa_writeback:e&#45;&gt;_core_2d__core_2dmain_pass:w</title>
<path fill="none" stroke="white" d="M156.38,-111C235.75,-111 258.38,-111 332.44,-111"/>
<polygon fill="white" stroke="white" points="332.24,-114.5 342.24,-111 332.24,-107.5 332.24,-114.5"/>
</g>
<!-- _core_2d__core_2dupscaling -->
<g id="node10" class="node">
<title>_core_2d__core_2dupscaling</title>
<text text-anchor="start" x="2156.88" y="-120.7" font-family="Helvetica,sans-Serif" font-size="14.00" fill="white">upscaling</text>
<text text-anchor="start" x="2107.75" y="-110.5" font-family="Helvetica,sans-Serif" font-size="10.00" fill="red">ViewNodeRunner&lt;UpscalingNode&gt;</text>
<path fill="none" stroke="white" d="M2113.58,-104C2113.58,-104 2257.17,-104 2257.17,-104 2262.83,-104 2268.5,-109.67 2268.5,-115.33 2268.5,-115.33 2268.5,-126.67 2268.5,-126.67 2268.5,-132.33 2262.83,-138 2257.17,-138 2257.17,-138 2113.58,-138 2113.58,-138 2107.92,-138 2102.25,-132.33 2102.25,-126.67 2102.25,-126.67 2102.25,-115.33 2102.25,-115.33 2102.25,-109.67 2107.92,-104 2113.58,-104"/>
</g>
<!-- _core_2d__core_2dend_main_pass_post_processing&#45;&gt;_core_2d__core_2dupscaling -->
<g id="edge15" class="edge">
<title>_core_2d__core_2dend_main_pass_post_processing:e&#45;&gt;_core_2d__core_2dupscaling:w</title>
<path fill="none" stroke="white" d="M1977.38,-121C2029.85,-121 2045.74,-121 2093.07,-121"/>
<polygon fill="white" stroke="white" points="2092.86,-124.5 2102.86,-121 2092.86,-117.5 2092.86,-124.5"/>
</g>
<!-- _core_2d__core_2dbloom&#45;&gt;_core_2d__core_2dtonemapping -->
<g id="edge14" class="edge">
<title>_core_2d__core_2dbloom:e&#45;&gt;_core_2d__core_2dtonemapping:w</title>
<path fill="none" stroke="white" d="M774.5,-91C828.96,-91 844.04,-108.36 893.12,-110.73"/>
<polygon fill="white" stroke="white" points="892.91,-114.23 902.99,-110.96 893.07,-107.23 892.91,-114.23"/>
</g>
<!-- _core_2d__core_2dfxaa -->
<g id="node8" class="node">
<title>_core_2d__core_2dfxaa</title>
<text text-anchor="start" x="1230.25" y="-160.7" font-family="Helvetica,sans-Serif" font-size="14.00" fill="white">fxaa</text>
<text text-anchor="start" x="1176.25" y="-150.5" font-family="Helvetica,sans-Serif" font-size="10.00" fill="red">ViewNodeRunner&lt;FxaaNode&gt;</text>
<path fill="none" stroke="white" d="M1182.08,-144C1182.08,-144 1303.92,-144 1303.92,-144 1309.58,-144 1315.25,-149.67 1315.25,-155.33 1315.25,-155.33 1315.25,-166.67 1315.25,-166.67 1315.25,-172.33 1309.58,-178 1303.92,-178 1303.92,-178 1182.08,-178 1182.08,-178 1176.42,-178 1170.75,-172.33 1170.75,-166.67 1170.75,-166.67 1170.75,-155.33 1170.75,-155.33 1170.75,-149.67 1176.42,-144 1182.08,-144"/>
</g>
<!-- _core_2d__core_2dfxaa&#45;&gt;_core_2d__core_2dcontrast_adaptive_sharpening -->
<g id="edge5" class="edge">
<title>_core_2d__core_2dfxaa:e&#45;&gt;_core_2d__core_2dcontrast_adaptive_sharpening:w</title>
<path fill="none" stroke="white" d="M1313,-161C1369.27,-161 1384.84,-143.57 1435.71,-141.25"/>
<polygon fill="white" stroke="white" points="1435.69,-144.75 1445.61,-141.03 1435.54,-137.76 1435.69,-144.75"/>
</g>
<!-- _core_2d__core_2dfxaa&#45;&gt;_core_2d__core_2dend_main_pass_post_processing -->
<g id="edge8" class="edge">
<title>_core_2d__core_2dfxaa:e&#45;&gt;_core_2d__core_2dend_main_pass_post_processing:w</title>
<path fill="none" stroke="white" d="M1313,-161C1349.82,-161 1358.49,-168.77 1395.25,-171 1524.68,-178.84 1562.13,-205.93 1687,-171 1724.22,-160.59 1726.47,-128.26 1758.02,-122.04"/>
<polygon fill="white" stroke="white" points="1758.23,-125.54 1767.87,-121.14 1757.59,-118.56 1758.23,-125.54"/>
</g>
<!-- _core_2d__core_2dtonemapping&#45;&gt;_core_2d__core_2dglyph_generation -->
<g id="edge1" class="edge">
<title>_core_2d__core_2dtonemapping:e&#45;&gt;_core_2d__core_2dglyph_generation:w</title>
<path fill="none" stroke="white" d="M1080.5,-111C1123.22,-111 1126.08,-69.22 1161.95,-62.04"/>
<polygon fill="white" stroke="white" points="1161.87,-65.57 1171.49,-61.14 1161.21,-58.6 1161.87,-65.57"/>
</g>
<!-- _core_2d__core_2dtonemapping&#45;&gt;_core_2d__core_2dcontrast_adaptive_sharpening -->
<g id="edge4" class="edge">
<title>_core_2d__core_2dtonemapping:e&#45;&gt;_core_2d__core_2dcontrast_adaptive_sharpening:w</title>
<path fill="none" stroke="white" d="M1080.5,-111C1089.76,-111 1374.95,-135.64 1435.95,-140.26"/>
<polygon fill="white" stroke="white" points="1435.41,-143.73 1445.61,-140.9 1435.87,-136.75 1435.41,-143.73"/>
</g>
<!-- _core_2d__core_2dtonemapping&#45;&gt;_core_2d__core_2dend_main_pass_post_processing -->
<g id="edge7" class="edge">
<title>_core_2d__core_2dtonemapping:e&#45;&gt;_core_2d__core_2dend_main_pass_post_processing:w</title>
<path fill="none" stroke="white" d="M1080.5,-111C1350.06,-111 1417.94,-94.73 1687,-111 1719.79,-112.98 1730.26,-119.37 1758.21,-120.74"/>
<polygon fill="white" stroke="white" points="1757.78,-124.23 1767.86,-120.96 1757.95,-117.23 1757.78,-124.23"/>
</g>
<!-- _core_2d__core_2dtonemapping&#45;&gt;_core_2d__core_2dfxaa -->
<g id="edge12" class="edge">
<title>_core_2d__core_2dtonemapping:e&#45;&gt;_core_2d__core_2dfxaa:w</title>
<path fill="none" stroke="white" d="M1080.5,-111C1123.22,-111 1126.08,-152.78 1161.95,-159.96"/>
<polygon fill="white" stroke="white" points="1161.21,-163.4 1171.49,-160.86 1161.87,-156.43 1161.21,-163.4"/>
</g>
<!-- _core_3d__core_3dcontrast_adaptive_sharpening -->
<g id="node11" class="node">
<title>_core_3d__core_3dcontrast_adaptive_sharpening</title>
<text text-anchor="start" x="3647.5" y="-311.7" font-family="Helvetica,sans-Serif" font-size="14.00" fill="white">contrast_adaptive_sharpening</text>
<text text-anchor="start" x="3715.75" y="-301.5" font-family="Helvetica,sans-Serif" font-size="10.00" fill="red">CASNode</text>
<path fill="none" stroke="white" d="M3653.33,-295C3653.33,-295 3822.42,-295 3822.42,-295 3828.08,-295 3833.75,-300.67 3833.75,-306.33 3833.75,-306.33 3833.75,-317.67 3833.75,-317.67 3833.75,-323.33 3828.08,-329 3822.42,-329 3822.42,-329 3653.33,-329 3653.33,-329 3647.67,-329 3642,-323.33 3642,-317.67 3642,-317.67 3642,-306.33 3642,-306.33 3642,-300.67 3647.67,-295 3653.33,-295"/>
</g>
<!-- _core_3d__core_3dend_main_pass_post_processing -->
<g id="node15" class="node">
<title>_core_3d__core_3dend_main_pass_post_processing</title>
<text text-anchor="start" x="3927.25" y="-311.7" font-family="Helvetica,sans-Serif" font-size="14.00" fill="white">end_main_pass_post_processing</text>
<text text-anchor="start" x="4002.25" y="-301.5" font-family="Helvetica,sans-Serif" font-size="10.00" fill="red">EmptyNode</text>
<path fill="none" stroke="white" d="M3933.08,-295C3933.08,-295 4123.17,-295 4123.17,-295 4128.83,-295 4134.5,-300.67 4134.5,-306.33 4134.5,-306.33 4134.5,-317.67 4134.5,-317.67 4134.5,-323.33 4128.83,-329 4123.17,-329 4123.17,-329 3933.08,-329 3933.08,-329 3927.42,-329 3921.75,-323.33 3921.75,-317.67 3921.75,-317.67 3921.75,-306.33 3921.75,-306.33 3921.75,-300.67 3927.42,-295 3933.08,-295"/>
</g>
<!-- _core_3d__core_3dcontrast_adaptive_sharpening&#45;&gt;_core_3d__core_3dend_main_pass_post_processing -->
<g id="edge21" class="edge">
<title>_core_3d__core_3dcontrast_adaptive_sharpening:e&#45;&gt;_core_3d__core_3dend_main_pass_post_processing:w</title>
<path fill="none" stroke="white" d="M3831.88,-312C3868.87,-312 3880.83,-312 3912.94,-312"/>
<polygon fill="white" stroke="white" points="3912.61,-315.5 3922.61,-312 3912.61,-308.5 3912.61,-315.5"/>
</g>
<!-- _core_3d__core_3dmsaa_writeback -->
<g id="node12" class="node">
<title>_core_3d__core_3dmsaa_writeback</title>
<text text-anchor="start" x="943.38" y="-371.7" font-family="Helvetica,sans-Serif" font-size="14.00" fill="white">msaa_writeback</text>
<text text-anchor="start" x="947.12" y="-361.5" font-family="Helvetica,sans-Serif" font-size="10.00" fill="red">MsaaWritebackNode</text>
<path fill="none" stroke="white" d="M949.21,-355C949.21,-355 1035.79,-355 1035.79,-355 1041.46,-355 1047.12,-360.67 1047.12,-366.33 1047.12,-366.33 1047.12,-377.67 1047.12,-377.67 1047.12,-383.33 1041.46,-389 1035.79,-389 1035.79,-389 949.21,-389 949.21,-389 943.54,-389 937.88,-383.33 937.88,-377.67 937.88,-377.67 937.88,-366.33 937.88,-366.33 937.88,-360.67 943.54,-355 949.21,-355"/>
</g>
<!-- _core_3d__core_3dstart_main_pass -->
<g id="node17" class="node">
<title>_core_3d__core_3dstart_main_pass</title>
<text text-anchor="start" x="1193.12" y="-311.7" font-family="Helvetica,sans-Serif" font-size="14.00" fill="white">start_main_pass</text>
<text text-anchor="start" x="1217.12" y="-301.5" font-family="Helvetica,sans-Serif" font-size="10.00" fill="red">EmptyNode</text>
<path fill="none" stroke="white" d="M1198.96,-295C1198.96,-295 1287.04,-295 1287.04,-295 1292.71,-295 1298.38,-300.67 1298.38,-306.33 1298.38,-306.33 1298.38,-317.67 1298.38,-317.67 1298.38,-323.33 1292.71,-329 1287.04,-329 1287.04,-329 1198.96,-329 1198.96,-329 1193.29,-329 1187.62,-323.33 1187.62,-317.67 1187.62,-317.67 1187.62,-306.33 1187.62,-306.33 1187.62,-300.67 1193.29,-295 1198.96,-295"/>
</g>
<!-- _core_3d__core_3dmsaa_writeback&#45;&gt;_core_3d__core_3dstart_main_pass -->
<g id="edge24" class="edge">
<title>_core_3d__core_3dmsaa_writeback:e&#45;&gt;_core_3d__core_3dstart_main_pass:w</title>
<path fill="none" stroke="white" d="M1045.5,-372C1111.1,-372 1119.64,-318.6 1178.78,-312.56"/>
<polygon fill="white" stroke="white" points="1178.67,-316.07 1188.49,-312.07 1178.33,-309.07 1178.67,-316.07"/>
</g>
<!-- _core_3d__core_3dshadow_pass -->
<g id="node13" class="node">
<title>_core_3d__core_3dshadow_pass</title>
<text text-anchor="start" x="951.25" y="-311.7" font-family="Helvetica,sans-Serif" font-size="14.00" fill="white">shadow_pass</text>
<text text-anchor="start" x="952" y="-301.5" font-family="Helvetica,sans-Serif" font-size="10.00" fill="red">ShadowPassNode</text>
<path fill="none" stroke="white" d="M957.08,-295C957.08,-295 1027.92,-295 1027.92,-295 1033.58,-295 1039.25,-300.67 1039.25,-306.33 1039.25,-306.33 1039.25,-317.67 1039.25,-317.67 1039.25,-323.33 1033.58,-329 1027.92,-329 1027.92,-329 957.08,-329 957.08,-329 951.42,-329 945.75,-323.33 945.75,-317.67 945.75,-317.67 945.75,-306.33 945.75,-306.33 945.75,-300.67 951.42,-295 957.08,-295"/>
</g>
<!-- _core_3d__core_3dshadow_pass&#45;&gt;_core_3d__core_3dstart_main_pass -->
<g id="edge25" class="edge">
<title>_core_3d__core_3dshadow_pass:e&#45;&gt;_core_3d__core_3dstart_main_pass:w</title>
<path fill="none" stroke="white" d="M1037.5,-312C1101.31,-312 1120.06,-312 1178.59,-312"/>
<polygon fill="white" stroke="white" points="1178.49,-315.5 1188.49,-312 1178.49,-308.5 1178.49,-315.5"/>
</g>
<!-- _core_3d__core_3dend_main_pass -->
<g id="node14" class="node">
<title>_core_3d__core_3dend_main_pass</title>
<text text-anchor="start" x="2713" y="-311.7" font-family="Helvetica,sans-Serif" font-size="14.00" fill="white">end_main_pass</text>
<text text-anchor="start" x="2735.12" y="-301.5" font-family="Helvetica,sans-Serif" font-size="10.00" fill="red">EmptyNode</text>
<path fill="none" stroke="white" d="M2718.83,-295C2718.83,-295 2803.17,-295 2803.17,-295 2808.83,-295 2814.5,-300.67 2814.5,-306.33 2814.5,-306.33 2814.5,-317.67 2814.5,-317.67 2814.5,-323.33 2808.83,-329 2803.17,-329 2803.17,-329 2718.83,-329 2718.83,-329 2713.17,-329 2707.5,-323.33 2707.5,-317.67 2707.5,-317.67 2707.5,-306.33 2707.5,-306.33 2707.5,-300.67 2713.17,-295 2718.83,-295"/>
</g>
<!-- _core_3d__core_3dbloom -->
<g id="node18" class="node">
<title>_core_3d__core_3dbloom</title>
<text text-anchor="start" x="2959" y="-291.7" font-family="Helvetica,sans-Serif" font-size="14.00" fill="white">bloom</text>
<text text-anchor="start" x="2908" y="-281.5" font-family="Helvetica,sans-Serif" font-size="10.00" fill="red">ViewNodeRunner&lt;BloomNode&gt;</text>
<path fill="none" stroke="white" d="M2913.83,-275C2913.83,-275 3041.67,-275 3041.67,-275 3047.33,-275 3053,-280.67 3053,-286.33 3053,-286.33 3053,-297.67 3053,-297.67 3053,-303.33 3047.33,-309 3041.67,-309 3041.67,-309 2913.83,-309 2913.83,-309 2908.17,-309 2902.5,-303.33 2902.5,-297.67 2902.5,-297.67 2902.5,-286.33 2902.5,-286.33 2902.5,-280.67 2908.17,-275 2913.83,-275"/>
</g>
<!-- _core_3d__core_3dend_main_pass&#45;&gt;_core_3d__core_3dbloom -->
<g id="edge26" class="edge">
<title>_core_3d__core_3dend_main_pass:e&#45;&gt;_core_3d__core_3dbloom:w</title>
<path fill="none" stroke="white" d="M2813,-312C2850.66,-312 2861.08,-295.72 2893.42,-292.53"/>
<polygon fill="white" stroke="white" points="2893.41,-296.04 2903.24,-292.07 2893.08,-289.05 2893.41,-296.04"/>
</g>
<!-- _core_3d__core_3dtonemapping -->
<g id="node26" class="node">
<title>_core_3d__core_3dtonemapping</title>
<text text-anchor="start" x="3191.88" y="-301.7" font-family="Helvetica,sans-Serif" font-size="14.00" fill="white">tonemapping</text>
<text text-anchor="start" x="3146.5" y="-291.5" font-family="Helvetica,sans-Serif" font-size="10.00" fill="red">ViewNodeRunner&lt;TonemappingNode&gt;</text>
<path fill="none" stroke="white" d="M3152.33,-285C3152.33,-285 3310.17,-285 3310.17,-285 3315.83,-285 3321.5,-290.67 3321.5,-296.33 3321.5,-296.33 3321.5,-307.67 3321.5,-307.67 3321.5,-313.33 3315.83,-319 3310.17,-319 3310.17,-319 3152.33,-319 3152.33,-319 3146.67,-319 3141,-313.33 3141,-307.67 3141,-307.67 3141,-296.33 3141,-296.33 3141,-290.67 3146.67,-285 3152.33,-285"/>
</g>
<!-- _core_3d__core_3dend_main_pass&#45;&gt;_core_3d__core_3dtonemapping -->
<g id="edge34" class="edge">
<title>_core_3d__core_3dend_main_pass:e&#45;&gt;_core_3d__core_3dtonemapping:w</title>
<path fill="none" stroke="white" d="M2813,-312C2849.49,-312 2858.07,-319.77 2894.5,-322 2968.36,-326.51 2987.53,-330.8 3061,-322 3094.27,-318.01 3103.68,-305.26 3131.92,-302.52"/>
<polygon fill="white" stroke="white" points="3131.91,-306.03 3141.74,-302.07 3131.59,-299.03 3131.91,-306.03"/>
</g>
<!-- _core_3d__core_3dupscaling -->
<g id="node27" class="node">
<title>_core_3d__core_3dupscaling</title>
<text text-anchor="start" x="4277.12" y="-311.7" font-family="Helvetica,sans-Serif" font-size="14.00" fill="white">upscaling</text>
<text text-anchor="start" x="4228" y="-301.5" font-family="Helvetica,sans-Serif" font-size="10.00" fill="red">ViewNodeRunner&lt;UpscalingNode&gt;</text>
<path fill="none" stroke="white" d="M4233.83,-295C4233.83,-295 4377.42,-295 4377.42,-295 4383.08,-295 4388.75,-300.67 4388.75,-306.33 4388.75,-306.33 4388.75,-317.67 4388.75,-317.67 4388.75,-323.33 4383.08,-329 4377.42,-329 4377.42,-329 4233.83,-329 4233.83,-329 4228.17,-329 4222.5,-323.33 4222.5,-317.67 4222.5,-317.67 4222.5,-306.33 4222.5,-306.33 4222.5,-300.67 4228.17,-295 4233.83,-295"/>
</g>
<!-- _core_3d__core_3dend_main_pass_post_processing&#45;&gt;_core_3d__core_3dupscaling -->
<g id="edge36" class="edge">
<title>_core_3d__core_3dend_main_pass_post_processing:e&#45;&gt;_core_3d__core_3dupscaling:w</title>
<path fill="none" stroke="white" d="M4132.12,-312C4169.22,-312 4181.21,-312 4213.41,-312"/>
<polygon fill="white" stroke="white" points="4213.11,-315.5 4223.11,-312 4213.11,-308.5 4213.11,-315.5"/>
</g>
<!-- _core_3d__core_3dend_prepasses -->
<g id="node16" class="node">
<title>_core_3d__core_3dend_prepasses</title>
<text text-anchor="start" x="946.38" y="-251.7" font-family="Helvetica,sans-Serif" font-size="14.00" fill="white">end_prepasses</text>
<text text-anchor="start" x="966.62" y="-241.5" font-family="Helvetica,sans-Serif" font-size="10.00" fill="red">EmptyNode</text>
<path fill="none" stroke="white" d="M952.21,-235C952.21,-235 1032.79,-235 1032.79,-235 1038.46,-235 1044.12,-240.67 1044.12,-246.33 1044.12,-246.33 1044.12,-257.67 1044.12,-257.67 1044.12,-263.33 1038.46,-269 1032.79,-269 1032.79,-269 952.21,-269 952.21,-269 946.54,-269 940.88,-263.33 940.88,-257.67 940.88,-257.67 940.88,-246.33 940.88,-246.33 940.88,-240.67 946.54,-235 952.21,-235"/>
</g>
<!-- _core_3d__core_3dend_prepasses&#45;&gt;_core_3d__core_3dstart_main_pass -->
<g id="edge23" class="edge">
<title>_core_3d__core_3dend_prepasses:e&#45;&gt;_core_3d__core_3dstart_main_pass:w</title>
<path fill="none" stroke="white" d="M1042.5,-252C1109.26,-252 1118.35,-305.4 1178.57,-311.44"/>
<polygon fill="white" stroke="white" points="1178.33,-314.94 1188.49,-311.93 1178.67,-307.94 1178.33,-314.94"/>
</g>
<!-- _core_3d__core_3dmain_opaque_pass -->
<g id="node19" class="node">
<title>_core_3d__core_3dmain_opaque_pass</title>
<text text-anchor="start" x="1814.12" y="-311.7" font-family="Helvetica,sans-Serif" font-size="14.00" fill="white">main_opaque_pass</text>
<text text-anchor="start" x="1773.62" y="-301.5" font-family="Helvetica,sans-Serif" font-size="10.00" fill="red">ViewNodeRunner&lt;MainOpaquePass3dNode&gt;</text>
<path fill="none" stroke="white" d="M1779.46,-295C1779.46,-295 1967.29,-295 1967.29,-295 1972.96,-295 1978.62,-300.67 1978.62,-306.33 1978.62,-306.33 1978.62,-317.67 1978.62,-317.67 1978.62,-323.33 1972.96,-329 1967.29,-329 1967.29,-329 1779.46,-329 1779.46,-329 1773.79,-329 1768.12,-323.33 1768.12,-317.67 1768.12,-317.67 1768.12,-306.33 1768.12,-306.33 1768.12,-300.67 1773.79,-295 1779.46,-295"/>
</g>
<!-- _core_3d__core_3dstart_main_pass&#45;&gt;_core_3d__core_3dmain_opaque_pass -->
<g id="edge27" class="edge">
<title>_core_3d__core_3dstart_main_pass:e&#45;&gt;_core_3d__core_3dmain_opaque_pass:w</title>
<path fill="none" stroke="white" d="M1296,-312C1340.33,-312 1350.97,-304.23 1395.25,-302 1524.75,-295.49 1557.56,-294.27 1687,-302 1720.18,-303.98 1730.79,-310.37 1759.08,-311.74"/>
<polygon fill="white" stroke="white" points="1758.78,-315.23 1768.86,-311.96 1758.95,-308.23 1758.78,-315.23"/>
</g>
<!-- _core_3d__core_3ddeferred_opaque_pbr_lighting_pass_3d -->
<g id="node28" class="node">
<title>_core_3d__core_3ddeferred_opaque_pbr_lighting_pass_3d</title>
<text text-anchor="start" x="1421.88" y="-331.7" font-family="Helvetica,sans-Serif" font-size="14.00" fill="white">deferred_opaque_pbr_lighting_pass_3d</text>
<text text-anchor="start" x="1408.75" y="-321.5" font-family="Helvetica,sans-Serif" font-size="10.00" fill="red">ViewNodeRunner&lt;DeferredOpaquePass3dPbrLightingNode&gt;</text>
<path fill="none" stroke="white" d="M1414.58,-315C1414.58,-315 1667.67,-315 1667.67,-315 1673.33,-315 1679,-320.67 1679,-326.33 1679,-326.33 1679,-337.67 1679,-337.67 1679,-343.33 1673.33,-349 1667.67,-349 1667.67,-349 1414.58,-349 1414.58,-349 1408.92,-349 1403.25,-343.33 1403.25,-337.67 1403.25,-337.67 1403.25,-326.33 1403.25,-326.33 1403.25,-320.67 1408.92,-315 1414.58,-315"/>
</g>
<!-- _core_3d__core_3dstart_main_pass&#45;&gt;_core_3d__core_3ddeferred_opaque_pbr_lighting_pass_3d -->
<g id="edge37" class="edge">
<title>_core_3d__core_3dstart_main_pass:e&#45;&gt;_core_3d__core_3ddeferred_opaque_pbr_lighting_pass_3d:w</title>
<path fill="none" stroke="white" d="M1296,-312C1341.26,-312 1353.83,-328.85 1393.73,-331.62"/>
<polygon fill="white" stroke="white" points="1393.5,-335.11 1403.61,-331.95 1393.74,-328.12 1393.5,-335.11"/>
</g>
<!-- _core_3d__core_3dbloom&#45;&gt;_core_3d__core_3dtonemapping -->
<g id="edge35" class="edge">
<title>_core_3d__core_3dbloom:e&#45;&gt;_core_3d__core_3dtonemapping:w</title>
<path fill="none" stroke="white" d="M3050.75,-292C3088.06,-292 3099.68,-300.14 3131.98,-301.73"/>
<polygon fill="white" stroke="white" points="3131.66,-305.23 3141.74,-301.96 3131.82,-298.23 3131.66,-305.23"/>
</g>
<!-- _core_3d__core_3dmain_transmissive_pass -->
<g id="node20" class="node">
<title>_core_3d__core_3dmain_transmissive_pass</title>
<text text-anchor="start" x="2110.75" y="-311.7" font-family="Helvetica,sans-Serif" font-size="14.00" fill="white">main_transmissive_pass</text>
<text text-anchor="start" x="2073.25" y="-301.5" font-family="Helvetica,sans-Serif" font-size="10.00" fill="red">ViewNodeRunner&lt;MainTransmissivePass3dNode&gt;</text>
<path fill="none" stroke="white" d="M2079.08,-295C2079.08,-295 2291.67,-295 2291.67,-295 2297.33,-295 2303,-300.67 2303,-306.33 2303,-306.33 2303,-317.67 2303,-317.67 2303,-323.33 2297.33,-329 2291.67,-329 2291.67,-329 2079.08,-329 2079.08,-329 2073.42,-329 2067.75,-323.33 2067.75,-317.67 2067.75,-317.67 2067.75,-306.33 2067.75,-306.33 2067.75,-300.67 2073.42,-295 2079.08,-295"/>
</g>
<!-- _core_3d__core_3dmain_opaque_pass&#45;&gt;_core_3d__core_3dmain_transmissive_pass -->
<g id="edge29" class="edge">
<title>_core_3d__core_3dmain_opaque_pass:e&#45;&gt;_core_3d__core_3dmain_transmissive_pass:w</title>
<path fill="none" stroke="white" d="M1976.38,-312C2013.67,-312 2025.73,-312 2058.09,-312"/>
<polygon fill="white" stroke="white" points="2057.86,-315.5 2067.86,-312 2057.86,-308.5 2057.86,-315.5"/>
</g>
<!-- _core_3d__core_3dmain_transparent_pass -->
<g id="node21" class="node">
<title>_core_3d__core_3dmain_transparent_pass</title>
<text text-anchor="start" x="2434.38" y="-311.7" font-family="Helvetica,sans-Serif" font-size="14.00" fill="white">main_transparent_pass</text>
<text text-anchor="start" x="2396.5" y="-301.5" font-family="Helvetica,sans-Serif" font-size="10.00" fill="red">ViewNodeRunner&lt;MainTransparentPass3dNode&gt;</text>
<path fill="none" stroke="white" d="M2402.33,-295C2402.33,-295 2608.17,-295 2608.17,-295 2613.83,-295 2619.5,-300.67 2619.5,-306.33 2619.5,-306.33 2619.5,-317.67 2619.5,-317.67 2619.5,-323.33 2613.83,-329 2608.17,-329 2608.17,-329 2402.33,-329 2402.33,-329 2396.67,-329 2391,-323.33 2391,-317.67 2391,-317.67 2391,-306.33 2391,-306.33 2391,-300.67 2396.67,-295 2402.33,-295"/>
</g>
<!-- _core_3d__core_3dmain_transmissive_pass&#45;&gt;_core_3d__core_3dmain_transparent_pass -->
<g id="edge30" class="edge">
<title>_core_3d__core_3dmain_transmissive_pass:e&#45;&gt;_core_3d__core_3dmain_transparent_pass:w</title>
<path fill="none" stroke="white" d="M2301.38,-312C2338.22,-312 2350.13,-312 2382.11,-312"/>
<polygon fill="white" stroke="white" points="2381.74,-315.5 2391.74,-312 2381.74,-308.5 2381.74,-315.5"/>
</g>
<!-- _core_3d__core_3dmain_transparent_pass&#45;&gt;_core_3d__core_3dend_main_pass -->
<g id="edge18" class="edge">
<title>_core_3d__core_3dmain_transparent_pass:e&#45;&gt;_core_3d__core_3dend_main_pass:w</title>
<path fill="none" stroke="white" d="M2617.25,-312C2654.05,-312 2665.94,-312 2697.87,-312"/>
<polygon fill="white" stroke="white" points="2697.49,-315.5 2707.49,-312 2697.49,-308.5 2697.49,-315.5"/>
</g>
<!-- _core_3d__core_3dcopy_deferred_lighting_id -->
<g id="node22" class="node">
<title>_core_3d__core_3dcopy_deferred_lighting_id</title>
<text text-anchor="start" x="624.25" y="-251.7" font-family="Helvetica,sans-Serif" font-size="14.00" fill="white">copy_deferred_lighting_id</text>
<text text-anchor="start" x="594.25" y="-241.5" font-family="Helvetica,sans-Serif" font-size="10.00" fill="red">ViewNodeRunner&lt;CopyDeferredLightingIdNode&gt;</text>
<path fill="none" stroke="white" d="M600.08,-235C600.08,-235 802.92,-235 802.92,-235 808.58,-235 814.25,-240.67 814.25,-246.33 814.25,-246.33 814.25,-257.67 814.25,-257.67 814.25,-263.33 808.58,-269 802.92,-269 802.92,-269 600.08,-269 600.08,-269 594.42,-269 588.75,-263.33 588.75,-257.67 588.75,-257.67 588.75,-246.33 588.75,-246.33 588.75,-240.67 594.42,-235 600.08,-235"/>
</g>
<!-- _core_3d__core_3dcopy_deferred_lighting_id&#45;&gt;_core_3d__core_3dend_prepasses -->
<g id="edge22" class="edge">
<title>_core_3d__core_3dcopy_deferred_lighting_id:e&#45;&gt;_core_3d__core_3dend_prepasses:w</title>
<path fill="none" stroke="white" d="M812.5,-252C866.33,-252 882.54,-252 931.23,-252"/>
<polygon fill="white" stroke="white" points="930.99,-255.5 940.99,-252 930.99,-248.5 930.99,-255.5"/>
</g>
<!-- _core_3d__core_3ddeferred_prepass -->
<g id="node23" class="node">
<title>_core_3d__core_3ddeferred_prepass</title>
<text text-anchor="start" x="332.88" y="-251.7" font-family="Helvetica,sans-Serif" font-size="14.00" fill="white">deferred_prepass</text>
<text text-anchor="start" x="276.25" y="-241.5" font-family="Helvetica,sans-Serif" font-size="10.00" fill="red">ViewNodeRunner&lt;DeferredGBufferPrepassNode&gt;</text>
<path fill="none" stroke="white" d="M282.08,-235C282.08,-235 489.42,-235 489.42,-235 495.08,-235 500.75,-240.67 500.75,-246.33 500.75,-246.33 500.75,-257.67 500.75,-257.67 500.75,-263.33 495.08,-269 489.42,-269 489.42,-269 282.08,-269 282.08,-269 276.42,-269 270.75,-263.33 270.75,-257.67 270.75,-257.67 270.75,-246.33 270.75,-246.33 270.75,-240.67 276.42,-235 282.08,-235"/>
</g>
<!-- _core_3d__core_3ddeferred_prepass&#45;&gt;_core_3d__core_3dcopy_deferred_lighting_id -->
<g id="edge31" class="edge">
<title>_core_3d__core_3ddeferred_prepass:e&#45;&gt;_core_3d__core_3dcopy_deferred_lighting_id:w</title>
<path fill="none" stroke="white" d="M498.75,-252C535.55,-252 547.44,-252 579.37,-252"/>
<polygon fill="white" stroke="white" points="578.99,-255.5 588.99,-252 578.99,-248.5 578.99,-255.5"/>
</g>
<!-- _core_3d__core_3dfxaa -->
<g id="node24" class="node">
<title>_core_3d__core_3dfxaa</title>
<text text-anchor="start" x="3469" y="-341.7" font-family="Helvetica,sans-Serif" font-size="14.00" fill="white">fxaa</text>
<text text-anchor="start" x="3415" y="-331.5" font-family="Helvetica,sans-Serif" font-size="10.00" fill="red">ViewNodeRunner&lt;FxaaNode&gt;</text>
<path fill="none" stroke="white" d="M3420.83,-325C3420.83,-325 3542.67,-325 3542.67,-325 3548.33,-325 3554,-330.67 3554,-336.33 3554,-336.33 3554,-347.67 3554,-347.67 3554,-353.33 3548.33,-359 3542.67,-359 3542.67,-359 3420.83,-359 3420.83,-359 3415.17,-359 3409.5,-353.33 3409.5,-347.67 3409.5,-347.67 3409.5,-336.33 3409.5,-336.33 3409.5,-330.67 3415.17,-325 3420.83,-325"/>
</g>
<!-- _core_3d__core_3dfxaa&#45;&gt;_core_3d__core_3dcontrast_adaptive_sharpening -->
<g id="edge17" class="edge">
<title>_core_3d__core_3dfxaa:e&#45;&gt;_core_3d__core_3dcontrast_adaptive_sharpening:w</title>
<path fill="none" stroke="white" d="M3551.75,-342C3590.77,-342 3599.36,-317.36 3632.68,-312.74"/>
<polygon fill="white" stroke="white" points="3632.62,-316.25 3642.36,-312.1 3632.16,-309.27 3632.62,-316.25"/>
</g>
<!-- _core_3d__core_3dfxaa&#45;&gt;_core_3d__core_3dend_main_pass_post_processing -->
<g id="edge20" class="edge">
<title>_core_3d__core_3dfxaa:e&#45;&gt;_core_3d__core_3dend_main_pass_post_processing:w</title>
<path fill="none" stroke="white" d="M3551.75,-342C3680.64,-342 3714.82,-364.39 3841.75,-342 3876.07,-335.94 3883.73,-316.72 3912.85,-312.73"/>
<polygon fill="white" stroke="white" points="3912.86,-316.24 3922.61,-312.1 3912.41,-309.25 3912.86,-316.24"/>
</g>
<!-- _core_3d__core_3dprepass -->
<g id="node25" class="node">
<title>_core_3d__core_3dprepass</title>
<text text-anchor="start" x="79.38" y="-251.7" font-family="Helvetica,sans-Serif" font-size="14.00" fill="white">prepass</text>
<text text-anchor="start" x="29.5" y="-241.5" font-family="Helvetica,sans-Serif" font-size="10.00" fill="red">ViewNodeRunner&lt;PrepassNode&gt;</text>
<path fill="none" stroke="white" d="M35.33,-235C35.33,-235 171.42,-235 171.42,-235 177.08,-235 182.75,-240.67 182.75,-246.33 182.75,-246.33 182.75,-257.67 182.75,-257.67 182.75,-263.33 177.08,-269 171.42,-269 171.42,-269 35.33,-269 35.33,-269 29.67,-269 24,-263.33 24,-257.67 24,-257.67 24,-246.33 24,-246.33 24,-240.67 29.67,-235 35.33,-235"/>
</g>
<!-- _core_3d__core_3dprepass&#45;&gt;_core_3d__core_3ddeferred_prepass -->
<g id="edge32" class="edge">
<title>_core_3d__core_3dprepass:e&#45;&gt;_core_3d__core_3ddeferred_prepass:w</title>
<path fill="none" stroke="white" d="M180.38,-252C217.42,-252 229.4,-252 261.55,-252"/>
<polygon fill="white" stroke="white" points="261.24,-255.5 271.24,-252 261.24,-248.5 261.24,-255.5"/>
</g>
<!-- _core_3d__core_3dtonemapping&#45;&gt;_core_3d__core_3dcontrast_adaptive_sharpening -->
<g id="edge16" class="edge">
<title>_core_3d__core_3dtonemapping:e&#45;&gt;_core_3d__core_3dcontrast_adaptive_sharpening:w</title>
<path fill="none" stroke="white" d="M3319.25,-302C3459.79,-302 3497.56,-311.48 3632.68,-311.98"/>
<polygon fill="white" stroke="white" points="3632.36,-315.48 3642.36,-312 3632.37,-308.48 3632.36,-315.48"/>
</g>
<!-- _core_3d__core_3dtonemapping&#45;&gt;_core_3d__core_3dend_main_pass_post_processing -->
<g id="edge19" class="edge">
<title>_core_3d__core_3dtonemapping:e&#45;&gt;_core_3d__core_3dend_main_pass_post_processing:w</title>
<path fill="none" stroke="white" d="M3319.25,-302C3435.45,-302 3727.32,-261.81 3841.75,-282 3876.07,-288.06 3883.73,-307.28 3912.85,-311.27"/>
<polygon fill="white" stroke="white" points="3912.41,-314.75 3922.61,-311.9 3912.86,-307.76 3912.41,-314.75"/>
</g>
<!-- _core_3d__core_3dtonemapping&#45;&gt;_core_3d__core_3dfxaa -->
<g id="edge33" class="edge">
<title>_core_3d__core_3dtonemapping:e&#45;&gt;_core_3d__core_3dfxaa:w</title>
<path fill="none" stroke="white" d="M3319.25,-302C3360.02,-302 3366.1,-335.14 3400.63,-341.09"/>
<polygon fill="white" stroke="white" points="3399.99,-344.55 3410.24,-341.88 3400.56,-337.57 3399.99,-344.55"/>
</g>
<!-- _core_3d__core_3ddeferred_opaque_pbr_lighting_pass_3d&#45;&gt;_core_3d__core_3dmain_opaque_pass -->
<g id="edge28" class="edge">
<title>_core_3d__core_3ddeferred_opaque_pbr_lighting_pass_3d:e&#45;&gt;_core_3d__core_3dmain_opaque_pass:w</title>
<path fill="none" stroke="white" d="M1677.12,-332C1715.54,-332 1726.1,-315.57 1759.29,-312.49"/>
<polygon fill="white" stroke="white" points="1759.03,-316.01 1768.86,-312.07 1758.72,-309.02 1759.03,-316.01"/>
</g>
<!-- _camera_driver -->
<g id="node29" class="node">
<title>_camera_driver</title>
<text text-anchor="start" x="59.88" y="-454.7" font-family="Helvetica,sans-Serif" font-size="14.00" fill="white">camera_driver</text>
<text text-anchor="start" x="61.38" y="-444.5" font-family="Helvetica,sans-Serif" font-size="10.00" fill="red">CameraDriverNode</text>
<path fill="none" stroke="white" d="M65.71,-438C65.71,-438 141.04,-438 141.04,-438 146.71,-438 152.38,-443.67 152.38,-449.33 152.38,-449.33 152.38,-460.67 152.38,-460.67 152.38,-466.33 146.71,-472 141.04,-472 141.04,-472 65.71,-472 65.71,-472 60.04,-472 54.38,-466.33 54.38,-460.67 54.38,-460.67 54.38,-449.33 54.38,-449.33 54.38,-443.67 60.04,-438 65.71,-438"/>
</g>
</g>
</svg>
